<svg width="1560" height="189" viewBox="0 0 1560 189" fill="none" xmlns="http://www.w3.org/2000/svg">
<path d="M124.992 84.1298H107.053C105.992 78.9204 104.136 74.3439 101.483 70.4003C98.8793 66.4567 95.6967 63.1461 91.9354 60.4683C88.2223 57.7419 84.0993 55.6971 79.5664 54.3339C75.0335 52.9706 70.3078 52.289 65.3891 52.289C56.4198 52.289 48.2944 54.5773 41.0129 59.1538C33.7796 63.7303 28.017 70.4733 23.7253 79.3829C19.4817 88.2925 17.3599 99.2226 17.3599 112.173C17.3599 125.124 19.4817 136.054 23.7253 144.963C28.017 153.873 33.7796 160.616 41.0129 165.192C48.2944 169.769 56.4198 172.057 65.3891 172.057C70.3078 172.057 75.0335 171.376 79.5664 170.012C84.0993 168.649 88.2223 166.629 91.9354 163.951C95.6967 161.225 98.8793 157.889 101.483 153.946C104.136 149.954 105.992 145.377 107.053 140.216H124.992C123.641 147.86 121.182 154.701 117.614 160.738C114.045 166.775 109.609 171.911 104.304 176.147C98.9999 180.334 93.0445 183.523 86.4381 185.714C79.8799 187.905 72.8635 189 65.3891 189C52.7549 189 41.5192 185.884 31.6819 179.652C21.8446 173.42 14.105 164.56 8.46297 153.07C2.82099 141.58 0 127.947 0 112.173C0 96.3988 2.82099 82.7666 8.46297 71.2767C14.105 59.7867 21.8446 50.9258 31.6819 44.694C41.5192 38.4621 52.7549 35.3462 65.3891 35.3462C72.8635 35.3462 79.8799 36.4417 86.4381 38.6325C93.0445 40.8234 98.9999 44.0367 104.304 48.2724C109.609 52.4594 114.045 57.5715 117.614 63.6086C121.182 69.597 123.641 76.4374 124.992 84.1298Z" fill="#8857FF"/>
<path d="M129.583 53.4575V37.391H240.686V53.4575H194.104V186.955H176.165V53.4575H129.583Z" fill="#8857FF"/>
<path d="M240.847 186.955H222.04L276.435 37.391H294.952L349.346 186.955H330.54L286.272 61.0526H285.115L240.847 186.955ZM247.791 128.532H323.596V144.598H247.791V128.532Z" fill="#8857FF"/>
<path d="M443.793 37.391V186.955H425.855V37.391H443.793ZM343.684 186.955L391.713 108.96L347.735 37.391H369.435L407.916 103.702H462.021L500.502 37.391H522.202L477.934 109.252L525.964 186.955H505.421L465.204 120.645H404.444L363.938 186.955H343.684Z" fill="#8857FF"/>
<path d="M533.177 186.955V37.391H622.58V53.4575H551.115V103.994H617.951V120.06H551.115V170.889H623.738V186.955H533.177Z" fill="#8857FF"/>
<path d="M638.618 186.955V37.391H688.673C700.294 37.391 709.794 39.5089 717.172 43.7446C724.598 47.9316 730.095 53.6036 733.664 60.7604C737.232 67.9173 739.016 75.9019 739.016 84.7141C739.016 93.5263 737.232 101.535 733.664 108.741C730.144 115.946 724.695 121.691 717.317 125.976C709.939 130.211 700.487 132.329 688.962 132.329H653.085V116.263H688.383C696.34 116.263 702.729 114.875 707.552 112.1C712.374 109.325 715.87 105.576 718.04 100.854C720.258 96.0823 721.367 90.7025 721.367 84.7141C721.367 78.7257 720.258 73.3702 718.04 68.6476C715.87 63.925 712.35 60.2249 707.479 57.5471C702.609 54.8207 696.147 53.4575 688.094 53.4575H656.557V186.955H638.618Z" fill="#8857FF"/>
<path d="M754.783 188.124C751.214 188.124 748.152 186.833 745.597 184.253C743.041 181.673 741.763 178.581 741.763 174.978C741.763 171.376 743.041 168.284 745.597 165.704C748.152 163.123 751.214 161.833 754.783 161.833C758.351 161.833 761.413 163.123 763.969 165.704C766.525 168.284 767.803 171.376 767.803 174.978C767.803 177.364 767.2 179.555 765.995 181.551C764.837 183.547 763.27 185.154 761.293 186.371C759.364 187.539 757.194 188.124 754.783 188.124Z" fill="#8857FF"/>
<path d="M909.447 112.173C909.447 127.947 906.626 141.58 900.984 153.07C895.342 164.56 887.602 173.42 877.765 179.652C867.928 185.884 856.692 189 844.058 189C831.424 189 820.188 185.884 810.351 179.652C800.513 173.42 792.774 164.56 787.132 153.07C781.49 141.58 778.669 127.947 778.669 112.173C778.669 96.3988 781.49 82.7666 787.132 71.2767C792.774 59.7867 800.513 50.9258 810.351 44.694C820.188 38.4621 831.424 35.3462 844.058 35.3462C856.692 35.3462 867.928 38.4621 877.765 44.694C887.602 50.9258 895.342 59.7867 900.984 71.2767C906.626 82.7666 909.447 96.3988 909.447 112.173ZM892.087 112.173C892.087 99.2226 889.941 88.2925 885.649 79.3829C881.406 70.4733 875.643 63.7303 868.362 59.1538C861.129 54.5773 853.027 52.289 844.058 52.289C835.089 52.289 826.963 54.5773 819.682 59.1538C812.448 63.7303 806.686 70.4733 802.394 79.3829C798.15 88.2925 796.029 99.2226 796.029 112.173C796.029 125.124 798.15 136.054 802.394 144.963C806.686 153.873 812.448 160.616 819.682 165.192C826.963 169.769 835.089 172.057 844.058 172.057C853.027 172.057 861.129 169.769 868.362 165.192C875.643 160.616 881.406 153.873 885.649 144.963C889.941 136.054 892.087 125.124 892.087 112.173Z" fill="#8857FF"/>
<path d="M923.315 186.955V37.391H941.253V103.994H1020.24V37.391H1038.18V186.955H1020.24V120.06H941.253V186.955H923.315Z" fill="#8857FF"/>
<path d="M1045.07 186.955V170.304H1049.41C1055.58 170.304 1060.38 168.308 1063.8 164.316C1067.23 160.324 1069.68 153.873 1071.18 144.963C1072.72 136.054 1073.76 124.247 1074.29 109.544L1076.89 37.391H1167.17V186.955H1149.23V53.4575H1093.96L1091.65 113.049C1091.07 128.726 1089.65 142.066 1087.38 153.07C1085.12 164.073 1081.14 172.471 1075.45 178.265C1069.76 184.058 1061.46 186.955 1050.56 186.955H1045.07Z" fill="#8857FF"/>
<path d="M1192.79 186.955H1173.98L1228.38 37.391H1246.89L1301.29 186.955H1282.48L1238.21 61.0526H1237.06L1192.79 186.955ZM1199.73 128.532H1275.54V144.598H1199.73V128.532Z" fill="#8857FF"/>
<path d="M1308.07 37.391H1325.72V155.114H1327.16L1408.18 37.391H1425.53V186.955H1407.6V69.524H1406.15L1325.43 186.955H1308.07V37.391ZM1380.98 0H1396.89C1396.89 7.88718 1394.19 14.3381 1388.79 19.3528C1383.39 24.3675 1376.06 26.8748 1366.8 26.8748C1357.69 26.8748 1350.43 24.3675 1345.03 19.3528C1339.68 14.3381 1337 7.88718 1337 0H1352.91C1352.91 3.79753 1353.95 7.13254 1356.02 10.005C1358.14 12.8775 1361.74 14.3138 1366.8 14.3138C1371.86 14.3138 1375.48 12.8775 1377.65 10.005C1379.87 7.13254 1380.98 3.79753 1380.98 0Z" fill="#8857FF"/>
<path d="M1445.14 186.955V37.391H1463.07V103.994H1542.06V37.391H1560V186.955H1542.06V120.06H1463.07V186.955H1445.14Z" fill="#8857FF"/>
</svg>
