<svg width="150" height="150" viewBox="0 0 150 150" fill="none" xmlns="http://www.w3.org/2000/svg">
    <circle cx="75" cy="75" r="75" fill="#7D52F4"/>
    <path d="M96.0286 43.08L121 35.2966L75 18L29 35.2966L52 43.08" stroke="white" stroke-width="3" stroke-linejoin="round"/>
    <path d="M96 51V38.6848C96 38.6848 86.7714 34 74.001 34C61.2286 34 52 38.6848 52 38.6848V51" stroke="white" stroke-width="3" stroke-linecap="round" stroke-linejoin="round"/>
    <path d="M111.793 70.1399C115.709 79.7806 116.905 91.5959 113.118 101.281C109.331 110.966 101.971 118.848 92.5374 123.321C83.1038 127.793 72.3069 128.519 62.3473 125.351C52.3876 122.183 44.0149 115.359 38.9355 106.27C33.8561 97.1816 32.4524 86.5118 35.0104 76.4357C37.5685 66.3596 43.8957 57.6357 52.7027 52.0418C61.5096 46.448 72.1333 44.4054 82.4085 46.3303C92.6838 48.2552 102.739 54.1695 108.905 62.5682" stroke="white" stroke-width="4"/>
    <path d="M94.559 77.1593H88.8566C88.5194 75.8083 87.9292 74.6215 87.0861 73.5987C86.2583 72.576 85.2466 71.7174 84.051 71.023C82.8706 70.3159 81.56 69.7856 80.1191 69.4321C78.6781 69.0785 77.1759 68.9018 75.6123 68.9018C72.7611 68.9018 70.1782 69.4952 67.8635 70.6821C65.5642 71.8689 63.7323 73.6177 62.3681 75.9283C61.0191 78.2389 60.3446 81.0735 60.3446 84.4321C60.3446 87.7906 61.0191 90.6252 62.3681 92.9359C63.7323 95.2465 65.5642 96.9952 67.8635 98.1821C70.1782 99.3689 72.7611 99.9624 75.6123 99.9624C77.1759 99.9624 78.6781 99.7856 80.1191 99.4321C81.56 99.0785 82.8706 98.5545 84.051 97.8601C85.2466 97.153 86.2583 96.2881 87.0861 95.2654C87.9292 94.23 88.5194 93.0432 88.8566 91.7048H94.559C94.1298 93.6871 93.348 95.4611 92.2137 97.0268C91.0793 98.5924 89.669 99.9245 87.9829 101.023C86.2967 102.109 84.4035 102.936 82.3034 103.504C80.2187 104.072 77.9883 104.356 75.6123 104.356C71.5961 104.356 68.0245 103.548 64.8973 101.932C61.7702 100.316 59.3099 98.0179 57.5164 95.0381C55.7229 92.0583 54.8262 88.523 54.8262 84.4321C54.8262 80.3412 55.7229 76.8058 57.5164 73.826C59.3099 70.8462 61.7702 68.5482 64.8973 66.9321C68.0245 65.3159 71.5961 64.5078 75.6123 64.5078C77.9883 64.5078 80.2187 64.7919 82.3034 65.3601C84.4035 65.9283 86.2967 66.7616 87.9829 67.8601C89.669 68.9459 91.0793 70.2717 92.2137 71.8374C93.348 73.3904 94.1298 75.1644 94.559 77.1593Z" fill="white"/>
    <path d="M110.375 58.3185L108.75 62.4824L106.227 69.8697C105.947 70.6899 106.772 71.4537 107.568 71.1117L111.605 69.3778C111.857 69.2695 112.143 69.2695 112.395 69.3778L116.432 71.1117C117.228 71.4537 118.053 70.6899 117.773 69.8697L115.25 62.4824L113.625 58.3185" stroke="white" stroke-width="2.5"/>
    <path d="M115.15 56.08C115.15 57.6956 113.771 59.0613 112 59.0613C110.229 59.0613 108.85 57.6956 108.85 56.08C108.85 54.4643 110.229 53.0986 112 53.0986C113.771 53.0986 115.15 54.4643 115.15 56.08Z" stroke="white" stroke-width="1.5"/>
    <path d="M112 39V53.3426" stroke="white" stroke-width="2"/>
</svg>
