<svg width="34" height="21" viewBox="0 0 34 21" fill="none" xmlns="http://www.w3.org/2000/svg">
<path d="M18.4738 21C7.19894 21 0.767958 13.1171 0.5 0H6.14772C6.33323 9.62763 10.4969 13.7057 13.7948 14.5465V0H19.1127V8.3033C22.3695 7.94595 25.7911 4.16216 26.9453 0H32.2633C31.8283 2.15862 30.9613 4.20248 29.7164 6.00375C28.4715 7.80502 26.8756 9.32495 25.0284 10.4685C27.0903 11.5133 28.9115 12.9922 30.3718 14.8076C31.8321 16.623 32.8983 18.7335 33.5 21H27.6462C27.106 19.0314 26.0081 17.2692 24.4901 15.9342C22.9721 14.5993 21.1015 13.7509 19.1127 13.4955V21H18.4738Z" fill="white"/>
</svg>
